<svg width="255" height="239" viewBox="0 0 255 239" fill="none" xmlns="http://www.w3.org/2000/svg">
<g opacity="0.5">
<path opacity="0.05" fill-rule="evenodd" clip-rule="evenodd" d="M143.064 282.048C130.764 293.08 111.859 292.089 100.779 279.832L20.1962 190.686C9.05495 178.361 10.0524 159.328 22.421 148.235L111.936 67.9522C124.236 56.9203 143.141 57.9111 154.221 70.1683L234.804 159.314C245.945 171.639 244.948 190.672 232.579 201.765L143.064 282.048Z" fill="#1849C6"/>
<path opacity="0.0535017" fill-rule="evenodd" clip-rule="evenodd" d="M81.8717 178.956C74.484 185.608 63.1026 185.011 56.4507 177.623L-9.95564 103.872C-16.6076 96.484 -16.0111 85.1026 -8.62339 78.4507L65.1283 12.0444C72.516 5.39244 83.8974 5.98891 90.5493 13.3766L156.956 87.1283C163.608 94.516 163.011 105.897 155.623 112.549L81.8717 178.956Z" fill="#1849C6"/>
</g>
</svg>
